<svg fill="none" height="64" viewBox="0 0 64 64" width="64" xmlns="http://www.w3.org/2000/svg"><rect fill="#fff" height="64" rx="8" width="64"/><path d="m50.3379 26.6118c.6613.0001 1.1972.536 1.1973 1.1973v24.1914h-7.335c-1.3227 0-2.3955-1.0728-2.3955-2.3955v-11.0596c-.0001-.414-.5716-.5948-.8281-.2705l-7.8086 10.2588c-.5455.717-1.5956.5797-2.0762-.0244l-8.1826-9.9932c-.2596-.3164-.7732-.1328-.7735.2764v10.8125c0 1.3227-1.0728 2.3955-2.3955 2.3955h-7.2754v-24.1836c0-.6645.5397-1.2019 1.2041-1.1973l10.086-.0068c1.5946.0001 3.001 1.0603 3.0166 3.3857l-.0039 11.4278.0078.122c.0412.2835.2397.514.498.5762.3523.0864.5779-.1225.6397-.1982 3.5834-4.73 7.1685-9.4586 10.7519-14.1885.5687-.7122 1.4298-1.126 2.3399-1.126zm1.1699-8.9092c0 1.3228-1.0743 2.3955-2.3955 2.3955h-36.6475v-5.7031c0-1.3212 1.0744-2.3955 2.3956-2.3955h36.6474z" fill="#403f3a"/></svg>