<svg width="101" height="24" viewBox="0 0 101 24" fill="none" xmlns="http://www.w3.org/2000/svg">
<path d="M30.7442 10.3223H31.934V1.85979H34.6519V0.858887H28.0272V1.85979H30.7442V10.3223Z" fill="white"/>
<path d="M35.9902 13.2559H37.1791L41.2085 3.52246H39.9781L37.8823 8.65694L35.8547 3.52246H34.6105L37.3127 10.0376L35.9902 13.2559Z" fill="white"/>
<path d="M46.6563 10.14C47.4923 9.77045 48.0729 9.07277 48.2379 8.18707H47.1024C46.7715 9.46631 45.0121 9.82667 43.9661 9.20088C43.2997 8.81655 42.9495 8.07831 42.8877 7.28109H48.319C48.3789 5.9401 48.0148 4.56593 46.8591 3.86087C45.3633 2.96412 42.8334 3.40282 42.0933 5.11154C41.3403 6.68295 41.6454 9.09028 43.2896 9.98519C44.1596 10.5197 45.7107 10.5778 46.6554 10.141L46.6563 10.14ZM43.9522 4.64427C45.3891 3.86087 47.096 4.718 47.213 6.38802H42.9052C42.9845 5.64886 43.3366 4.99265 43.9522 4.64427Z" fill="white"/>
<path d="M54.9511 9.99154C56.7198 8.88556 56.9059 5.90866 55.5659 4.38149C54.3935 3.01009 51.9005 3.09856 50.9291 4.64693V0H49.7936V10.3224H50.9152V9.16851C51.7014 10.4994 53.7023 10.7906 54.9511 9.99154ZM52.2203 9.31505C50.554 8.53257 50.4968 5.64691 51.9696 4.66444C53.6876 3.68842 55.3382 5.00821 55.2682 6.91509C55.3318 8.66713 53.9198 10.0219 52.2194 9.31413L52.2203 9.31505Z" fill="white"/>
<path d="M62.4726 2.98235L65.6781 10.3223H66.6514L69.7674 3.02567L70.2209 10.3223H71.4098L70.8292 0.858887H69.5038L66.1887 8.77212L62.7851 0.858887H61.433L60.892 10.3223H62.0551L62.4726 2.98235Z" fill="white"/>
<path d="M78.9129 9.34178C79.1839 9.00354 79.359 8.61829 79.4401 8.18604H78.3046C77.9738 9.46528 76.2144 9.82564 75.1683 9.19985C74.5019 8.81552 74.1517 8.07729 74.09 7.28007H79.5212C79.6493 5.17595 78.5581 3.364 76.2761 3.41377C74.2006 3.35386 72.8596 4.92066 72.9103 6.92892C72.9075 8.20632 73.3997 9.35376 74.4918 9.98417C75.7766 10.7233 77.9599 10.5842 78.912 9.34178H78.9129ZM75.1554 4.64417C76.5922 3.86077 78.2991 4.7179 78.4162 6.38791H74.1084C74.1877 5.64876 74.5397 4.99255 75.1554 4.64417Z" fill="white"/>
<path d="M87.0381 10.221V6.16487C87.0326 5.37134 86.9026 4.64324 86.4363 4.0626C85.9672 3.5004 85.2925 3.31607 84.523 3.31239C83.4585 3.30962 82.6511 3.74648 82.1977 4.67365V0H81.0622V10.2201H82.1977V7.13813C82.1359 5.33447 83.0142 3.84602 84.8677 4.39347C85.77 4.71052 85.8907 5.65152 85.9017 6.5833V10.2201H87.0372L87.0381 10.221Z" fill="white"/>
<path d="M89.3772 8.03752C89.3837 9.06607 89.5054 10.0891 90.5606 10.3628C91.2085 10.5177 92.2122 10.5324 92.8795 10.255V9.20063C92.3726 9.61076 90.8381 9.74993 90.6288 8.99142C90.404 8.44581 90.5551 5.07075 90.5136 4.41546H92.8657V3.52331H90.5136V0.939941H89.3782V3.52239H87.9994V4.41454H89.3782V8.03752H89.3772Z" fill="white"/>
<path d="M95.8591 10.1803C97.1126 10.7315 98.7863 10.3766 99.5162 9.17758V10.3223H100.638V3.52238H99.5162V4.67627C98.3642 2.79612 95.2785 3.08921 94.3928 5.07719C93.5827 6.7343 93.9799 9.40891 95.8601 10.1803H95.8591ZM95.4333 5.56382C95.8766 4.49287 97.1863 4.06338 98.2121 4.52973C99.1199 4.94263 99.5134 5.93063 99.5033 6.91587C99.5448 8.24396 98.7245 9.52596 97.3264 9.49739C95.3578 9.54439 94.7347 7.06241 95.4333 5.5629V5.56382Z" fill="white"/>
<path d="M28.8382 23.8502H30.0281V19.7267H33.9082V18.7258H30.0281V15.3867H34.3137V14.3867H28.8382V23.8502Z" fill="white"/>
<path d="M40.7624 17.3878C38.3505 16.1344 35.3653 17.539 35.4363 20.4569C35.3708 23.3647 38.3588 24.7646 40.7624 23.5121C42.9688 22.326 42.9661 18.5721 40.7624 17.3878ZM40.9652 21.7748C40.2813 23.4255 37.5662 23.4255 36.8823 21.7748C36.1496 20.1905 36.8786 17.8044 38.9238 17.8883C40.9845 17.8136 41.6951 20.1767 40.9652 21.7748Z" fill="white"/>
<path d="M48.8194 20.1322C48.8074 21.228 48.6369 22.1478 47.86 22.7073C47.1927 23.1276 46.1365 23.0962 45.5891 22.511C45.1863 22.0234 45.1264 21.4124 45.1153 20.6861V17.0493H43.9799V21.1055C43.9845 21.899 44.1154 22.628 44.5817 23.2077C45.0508 23.7699 45.7255 23.9543 46.495 23.958C47.5697 23.9616 48.3835 23.5137 48.8342 22.57V23.8492H49.9558V17.0493H48.8203V20.1313L48.8194 20.1322Z" fill="white"/>
<path d="M57.7087 17.6916C57.2396 17.1294 56.5649 16.9451 55.7953 16.9414C54.7198 16.9377 53.9069 17.3857 53.4562 18.3294V17.0502H52.3346V23.8501H53.47V20.7681C53.4083 18.9644 54.2866 17.476 56.14 18.0234C57.0423 18.3405 57.1631 19.2815 57.1741 20.2133V23.8501H58.3096V19.7939C58.3041 18.9995 58.1741 18.2723 57.7078 17.6916H57.7087Z" fill="white"/>
<path d="M65.5426 18.1823C64.7463 16.8653 62.7731 16.5906 61.527 17.3814C60.4939 18.0358 60.0358 19.1722 60.0404 20.4431C60.0257 21.8016 60.6165 23.1592 61.8791 23.7076C63.1353 24.2606 64.8228 23.902 65.5565 22.7039V23.8495H66.6781V13.6294H65.5426V18.1814V18.1823ZM65.2726 21.7952C64.7998 22.9601 63.2487 23.3831 62.2302 22.7011C61.504 22.2099 61.2008 21.3583 61.2026 20.444C61.163 19.1205 61.9685 17.8441 63.3657 17.8754C65.3417 17.8247 65.9758 20.2975 65.2717 21.7961L65.2726 21.7952Z" fill="white"/>
<path d="M74.0734 18.2033C73.2854 16.8688 71.2983 16.5849 70.0449 17.3812C69.0117 18.0356 68.5537 19.172 68.5583 20.4429C68.5408 21.8088 69.1435 23.1645 70.4172 23.7074C71.6706 24.2576 73.3444 23.9046 74.0743 22.7046V23.8493H75.1959V17.0494H74.0743V18.2033H74.0734ZM73.7895 21.795C73.3167 22.9599 71.7656 23.383 70.7472 22.7009C70.0209 22.2097 69.7177 21.3581 69.7195 20.4438C69.6799 19.1204 70.4854 17.8439 71.8826 17.8752C73.8586 17.8245 74.4927 20.2973 73.7886 21.7959L73.7895 21.795Z" fill="white"/>
<path d="M80.4954 23.0519C79.4641 23.0888 79.2853 22.5662 79.2917 21.5782V17.9414H81.6437V17.0492H79.2917V14.4668H78.1562V17.0492H76.7775V17.9414H78.1562V21.5644C78.1627 22.5929 78.2844 23.6159 79.3396 23.8897C79.9885 24.0445 80.9912 24.0593 81.6585 23.7818V22.7275C81.3811 22.9763 80.8392 23.0482 80.4954 23.0519Z" fill="white"/>
<path d="M84.7257 14.022H83.2391V15.5095H84.7257V14.022Z" fill="white"/>
<path d="M84.5506 17.0503H83.4151V23.8502H84.5506V17.0503Z" fill="white"/>
<path d="M91.5542 17.3878C89.1422 16.1344 86.157 17.539 86.228 20.4569C86.1626 23.3647 89.1505 24.7646 91.5542 23.5121C93.7606 22.326 93.7578 18.5721 91.5542 17.3878ZM91.7569 21.7748C91.0731 23.4255 88.3579 23.4255 87.674 21.7748C86.9413 20.1905 87.6704 17.8044 89.7155 17.8883C91.7763 17.8136 92.4869 20.1767 91.7569 21.7748Z" fill="white"/>
<path d="M100.503 18.5913C100.226 17.4779 99.2766 16.9074 98.1375 16.9424C97.0619 16.9388 96.249 17.3867 95.7983 18.3304V17.0512H94.6767V23.8511H95.8122V20.7691C95.7504 18.9654 96.6287 17.477 98.4822 18.0244C99.3845 18.3415 99.5052 19.2825 99.5162 20.2143V23.8511H100.652C100.607 22.9598 100.78 19.3811 100.503 18.5922V18.5913Z" fill="white"/>
<path d="M1.42855 0H23.2862V3.40179C23.2862 4.19071 22.6457 4.83033 21.8577 4.83033H0V1.42855C0 0.640542 0.640542 0 1.42855 0Z" fill="white"/>
<path d="M8.53073 17.5497C8.52704 17.7516 8.65607 17.9248 8.8321 17.9672C9.04224 18.0188 9.1768 17.8944 9.21366 17.8493C11.351 15.0281 13.4892 12.2079 15.6265 9.38672C15.9656 8.96184 16.479 8.71484 17.0218 8.71484H22.5885C22.983 8.71484 23.3028 9.03465 23.3028 9.42912V23.8574H18.9278C18.1389 23.8574 17.4992 23.2178 17.4992 22.4289V15.8327C17.4992 15.5857 17.1582 15.4779 17.0052 15.6714L12.3482 21.7902C12.0228 22.2178 11.3961 22.1358 11.1095 21.7755L6.22938 15.8152C6.07455 15.6262 5.76764 15.7359 5.76764 15.9802V22.4289C5.76764 23.2178 5.12802 23.8574 4.33909 23.8574H0V9.43373C0 9.03742 0.321653 8.71669 0.71796 8.71945L6.73352 8.71577C7.68466 8.71577 8.52335 9.34801 8.53257 10.7351L8.53073 17.5506V17.5497Z" fill="white"/>
</svg>
