<svg width="135" height="32" viewBox="0 0 135 32" fill="none" xmlns="http://www.w3.org/2000/svg">
<path d="M40.9922 13.7632H42.5787V2.47983H46.2026V1.14529H37.3695V2.47983H40.9922V13.7632Z" fill="#403F3A"/>
<path d="M47.9869 17.6747H49.5721L54.9447 4.69669H53.3041L50.5097 11.5427L47.8062 4.69669H46.1473L49.7503 13.3835L47.9869 17.6747Z" fill="#403F3A"/>
<path d="M62.2085 13.5199C63.323 13.0271 64.0972 12.0969 64.3172 10.9159H62.8032C62.3621 12.6216 60.0162 13.1021 58.6214 12.2677C57.733 11.7553 57.266 10.7709 57.1837 9.70797H64.4253C64.5052 7.91999 64.0198 6.08776 62.4788 5.14768C60.4844 3.952 57.1112 4.53694 56.1244 6.81524C55.1204 8.91045 55.5272 12.1202 57.7194 13.3134C58.8795 14.0262 60.9476 14.1036 62.2072 13.5211L62.2085 13.5199ZM58.603 6.19221C60.5188 5.14768 62.7946 6.29052 62.9507 8.51721H57.207C57.3127 7.53167 57.7821 6.65672 58.603 6.19221Z" fill="#403F3A"/>
<path d="M73.2682 13.322C75.6263 11.8474 75.8746 7.87821 74.0878 5.84199C72.5247 4.01345 69.2006 4.13142 67.9054 6.1959V0H66.3915V13.7632H67.887V12.2247C68.9352 13.9991 71.6031 14.3875 73.2682 13.322ZM69.6271 12.4201C67.4053 11.3768 67.3291 7.52921 69.2928 6.21925C71.5834 4.91789 73.7843 6.67761 73.6909 9.22012C73.7757 11.5562 71.8931 13.3626 69.6258 12.4188L69.6271 12.4201Z" fill="#403F3A"/>
<path d="M83.2969 3.97658L87.5708 13.7632H88.8685L93.0233 4.03434L93.6279 13.7632H95.2131L94.4389 1.14529H92.6718L88.2516 11.6963L83.7134 1.14529H81.9107L81.1894 13.7632H82.7402L83.2969 3.97658Z" fill="#403F3A"/>
<path d="M105.217 12.4557C105.578 12.0047 105.812 11.491 105.92 10.9147H104.406C103.965 12.6204 101.619 13.1008 100.224 12.2665C99.3359 11.754 98.8689 10.7697 98.7866 9.70674H106.028C106.199 6.90126 104.744 4.48533 101.701 4.55169C98.9341 4.47181 97.1461 6.56087 97.2137 9.23855C97.21 10.9417 97.8662 12.4717 99.3224 13.3122C101.035 14.2978 103.947 14.1122 105.216 12.4557H105.217ZM100.207 6.19221C102.123 5.14768 104.399 6.29052 104.555 8.51721H98.8112C98.9169 7.53167 99.3863 6.65672 100.207 6.19221Z" fill="#403F3A"/>
<path d="M116.051 13.628V8.21983C116.043 7.16178 115.87 6.19099 115.248 5.4168C114.623 4.6672 113.723 4.42143 112.697 4.41651C111.278 4.41283 110.201 4.99531 109.597 6.23154V0H108.083V13.6268H109.597V9.5175C109.515 7.11263 110.686 5.12802 113.157 5.85796C114.36 6.28069 114.521 7.53536 114.536 8.77773V13.6268H116.05L116.051 13.628Z" fill="#403F3A"/>
<path d="M119.17 10.7169C119.178 12.0883 119.34 13.4523 120.748 13.8173C121.611 14.0237 122.95 14.0434 123.839 13.6735V12.2677C123.163 12.8145 121.117 13.0001 120.838 11.9887C120.539 11.2613 120.74 6.76117 120.685 5.88746H123.821V4.69792H120.685V1.25343H119.171V4.69669H117.333V5.88623H119.171V10.7169H119.17Z" fill="#403F3A"/>
<path d="M127.812 13.574C129.483 14.3088 131.715 13.8357 132.688 12.237V13.7632H134.184V4.69669H132.688V6.23522C131.152 3.72835 127.038 4.11913 125.857 6.76978C124.777 8.97926 125.307 12.5454 127.813 13.574H127.812ZM127.244 7.41861C127.836 5.99068 129.582 5.41803 130.949 6.03984C132.16 6.59036 132.685 7.9077 132.671 9.22135C132.726 10.9921 131.633 12.7015 129.769 12.6634C127.144 12.7261 126.313 9.41674 127.244 7.41739V7.41861Z" fill="#403F3A"/>
<path d="M38.4509 31.8004H40.0374V26.3025H45.2109V24.9679H40.0374V20.5158H45.7516V19.1825H38.4509V31.8004Z" fill="#403F3A"/>
<path d="M54.3499 23.1836C51.134 21.5124 47.1537 23.3852 47.2483 27.2757C47.1611 31.1528 51.145 33.0194 54.3499 31.3494C57.2918 29.7679 57.2881 24.7627 54.3499 23.1836ZM54.6203 29.033C53.7084 31.2339 50.0882 31.2339 49.1764 29.033C48.1995 26.9206 49.1715 23.7391 51.8983 23.8509C54.6461 23.7514 55.5935 26.9022 54.6203 29.033Z" fill="#403F3A"/>
<path d="M65.0926 26.8432C65.0766 28.3043 64.8492 29.5307 63.8133 30.2766C62.9236 30.837 61.5154 30.7952 60.7854 30.0148C60.2484 29.3648 60.1685 28.55 60.1538 27.5817V22.7326H58.6398V28.1408C58.646 29.1989 58.8205 30.1709 59.4423 30.9439C60.0678 31.6935 60.9673 31.9392 61.9934 31.9442C63.4262 31.9491 64.5113 31.3518 65.1122 30.0935V31.7991H66.6077V22.7326H65.0938V26.8419L65.0926 26.8432Z" fill="#403F3A"/>
<path d="M76.9449 23.5892C76.3194 22.8396 75.4199 22.5938 74.3938 22.5889C72.9597 22.584 71.8759 23.1812 71.275 24.4395V22.7339H69.7794V31.8004H71.2934V27.6911C71.2111 25.2862 72.3822 23.3016 74.8534 24.0315C76.0564 24.4543 76.2174 25.7089 76.2322 26.9513V31.8004H77.7461V26.3922C77.7388 25.3329 77.5655 24.3633 76.9437 23.5892H76.9449Z" fill="#403F3A"/>
<path d="M87.3902 24.2429C86.3284 22.4869 83.6975 22.1207 82.036 23.175C80.6585 24.0475 80.0477 25.5627 80.0539 27.2573C80.0342 29.0686 80.8219 30.8787 82.5055 31.6099C84.1804 32.3472 86.4304 31.8692 87.4086 30.2717V31.7992H88.9041V18.1723H87.3902V24.2417V24.2429ZM87.0301 29.06C86.3997 30.6133 84.3315 31.1773 82.9737 30.268C82.0053 29.613 81.601 28.4775 81.6035 27.2585C81.5506 25.4939 82.6247 23.7919 84.4876 23.8337C87.1223 23.7661 87.9677 27.0631 87.0289 29.0613L87.0301 29.06Z" fill="#403F3A"/>
<path d="M98.7645 24.2712C97.7138 22.4918 95.0644 22.1133 93.3932 23.175C92.0156 24.0475 91.4049 25.5627 91.411 27.2573C91.3877 29.0785 92.1913 30.8861 93.8896 31.6099C95.5609 32.3435 97.7925 31.8729 98.7657 30.2729V31.7992H100.261V22.7326H98.7657V24.2712H98.7645ZM98.386 29.06C97.7556 30.6133 95.6874 31.1774 94.3296 30.268C93.3612 29.613 92.9569 28.4776 92.9594 27.2585C92.9065 25.4939 93.9806 23.7919 95.8435 23.8337C98.4782 23.7661 99.3236 27.0631 98.3848 29.0613L98.386 29.06Z" fill="#403F3A"/>
<path d="M107.327 30.7362C105.952 30.7853 105.714 30.0886 105.722 28.7713V23.9222H108.858V22.7326H105.722V19.2894H104.208V22.7326H102.37V23.9222H104.208V28.7528C104.217 30.1242 104.379 31.4883 105.786 31.8532C106.651 32.0597 107.988 32.0793 108.878 31.7094V30.3036C108.508 30.6354 107.786 30.7313 107.327 30.7362Z" fill="#403F3A"/>
<path d="M112.968 18.6958H110.985V20.6792H112.968V18.6958Z" fill="#403F3A"/>
<path d="M112.734 22.7339H111.22V31.8004H112.734V22.7339Z" fill="#403F3A"/>
<path d="M122.072 23.1836C118.856 21.5124 114.876 23.3852 114.971 27.2757C114.883 31.1528 118.867 33.0194 122.072 31.3494C125.014 29.7679 125.01 24.7627 122.072 23.1836ZM122.343 29.033C121.431 31.2339 117.811 31.2339 116.899 29.033C115.922 26.9206 116.894 23.7391 119.621 23.8509C122.368 23.7514 123.316 26.9022 122.343 29.033Z" fill="#403F3A"/>
<path d="M134.004 24.7885C133.635 23.3041 132.369 22.5434 130.85 22.5901C129.416 22.5852 128.332 23.1824 127.731 24.4408V22.7351H126.236V31.8016H127.75V27.6923C127.667 25.2874 128.838 23.3028 131.31 24.0328C132.513 24.4555 132.674 25.7102 132.688 26.9525V31.8016H134.202C134.142 30.6133 134.373 25.8417 134.004 24.7898V24.7885Z" fill="#403F3A"/>
<path d="M1.90473 0H31.0483V4.53571C31.0483 5.58762 30.1943 6.44044 29.1436 6.44044H0V1.90473C0 0.854056 0.854056 0 1.90473 0Z" fill="#403F3A"/>
<path d="M11.3743 23.3999C11.3694 23.669 11.5414 23.9001 11.7761 23.9566C12.0563 24.0254 12.2357 23.8595 12.2849 23.7993C15.1346 20.0378 17.9856 16.2774 20.8353 12.5159C21.2875 11.9494 21.972 11.6201 22.6958 11.6201H30.1181C30.644 11.6201 31.0704 12.0465 31.0704 12.5724V31.8102H25.237C24.1851 31.8102 23.3323 30.9574 23.3323 29.9055V21.1105C23.3323 20.7812 22.8776 20.6374 22.6736 20.8955L16.4642 29.0539C16.0304 29.6241 15.1948 29.5147 14.8126 29.0342L8.30585 21.0872C8.0994 20.8353 7.69019 20.9815 7.69019 21.3072V29.9055C7.69019 30.9574 6.83736 31.8102 5.78546 31.8102H0V12.5786C0 12.0502 0.428871 11.6225 0.95728 11.6262L8.97803 11.6213C10.2462 11.6213 11.3645 12.4643 11.3768 14.3137L11.3743 23.4011V23.3999Z" fill="#403F3A"/>
</svg>
