<svg width="25" height="24" viewBox="0 0 25 24" fill="none" xmlns="http://www.w3.org/2000/svg">
<path d="M2.56202 12.348C2.47868 12.1235 2.47868 11.8765 2.56202 11.652C3.37372 9.68385 4.75153 8.00103 6.52079 6.81689C8.29004 5.63275 10.3711 5.00061 12.5 5.00061C14.629 5.00061 16.71 5.63275 18.4792 6.81689C20.2485 8.00103 21.6263 9.68385 22.438 11.652C22.5214 11.8765 22.5214 12.1235 22.438 12.348C21.6263 14.3161 20.2485 15.999 18.4792 17.1831C16.71 18.3672 14.629 18.9994 12.5 18.9994C10.3711 18.9994 8.29004 18.3672 6.52079 17.1831C4.75153 15.999 3.37372 14.3161 2.56202 12.348Z" stroke="white" stroke-linecap="round" stroke-linejoin="round"/>
<path d="M12.5 15C14.1569 15 15.5 13.6568 15.5 12C15.5 10.3431 14.1569 8.99999 12.5 8.99999C10.8432 8.99999 9.50002 10.3431 9.50002 12C9.50002 13.6568 10.8432 15 12.5 15Z" stroke="white" stroke-linecap="round" stroke-linejoin="round"/>
</svg>
